<svg xmlns="http://www.w3.org/2000/svg" width="192" height="192" style="width:100%;height:100%;transform:translate3d(0,0,0);content-visibility:visible" viewBox="0 0 192 192"><defs><clipPath id="a"><path d="M0 0h192v192H0z"/></clipPath><clipPath id="c"><path d="M0 0h192v192H0z"/></clipPath><clipPath id="b"><path d="M0 0h192v192H0z"/></clipPath></defs><g clip-path="url(#a)"><g clip-path="url(#b)" style="display:block"><g style="display:block"><path fill="#3583FF" d="M139.27 19.962c8.985.037 15.509 5.641 15.545 13.545.12 26.584.364 85.575.433 114.072.024 9.797-6.374 16.082-16.078 16.087-22.93.009-64.675-.065-86.609-.144-8.742-.032-14.356-6.258-14.363-15.941-.023-28.724-.048-88.827-.06-115.007-.004-7.793 5.459-12.769 14.025-12.787 21.954-.047 64.272.082 87.107.175" class="quaternary"/><path fill="none" stroke="#3583FF" stroke-linecap="round" stroke-linejoin="round" stroke-width="1.5" d="M139.27 19.962c8.985.037 15.509 5.641 15.545 13.545.12 26.584.364 85.575.433 114.072.024 9.797-6.374 16.082-16.078 16.087-22.93.009-64.675-.065-86.609-.144-8.742-.032-14.356-6.258-14.363-15.941-.023-28.724-.048-88.827-.06-115.007-.004-7.793 5.459-12.769 14.025-12.787 21.954-.047 64.272.082 87.107.175" class="quaternary"/></g><path fill="none" stroke="#16161C" stroke-linecap="round" stroke-linejoin="round" stroke-width="2.9955" d="M32.63.114C27.086.107-3.387-.026-32.311-.14" class="primary" style="display:block" transform="rotate(90 21.508 143.558)"/><path fill="none" stroke="#16161C" stroke-linecap="round" stroke-linejoin="round" stroke-width="2.9955" d="M12.896-.023c-2.165.017-14.309.078-25.531.118" class="primary" style="display:block" transform="rotate(90 49.407 115.574)"/><path fill="none" stroke="#16161C" stroke-linecap="round" stroke-linejoin="round" stroke-width="2.9955" d="M.007 39.496c0-10.621-.052-53.776-.083-78.969" class="primary" style="display:block" transform="rotate(90 -44.149 128.763)"/><path fill="none" stroke="#16161C" stroke-linecap="round" stroke-linejoin="round" stroke-width="3" d="M-.101 33.57c-.041-23.366-.132-62.448.02-66.826" class="primary" style="display:block" transform="translate(46.155 93.685)"/><g style="display:block"><path fill="#F5E3E1" d="M47.122 156.072c-2.555-2.068-1.466-6.145 1.886-6.452.09 0 .353-.013.499.001.996.093 3.089.63 3.39 3.265.244 2.138-1.321 3.645-3.064 3.904-.935.139-1.961-.111-2.711-.718" class="secondary"/><path fill="none" stroke="#16161C" stroke-linecap="round" stroke-linejoin="round" stroke-width="3" d="M47.122 156.072c-2.555-2.068-1.466-6.145 1.886-6.452.09 0 .353-.013.499.001.996.093 3.089.63 3.39 3.265.244 2.138-1.321 3.645-3.064 3.904-.935.139-1.961-.111-2.711-.718" class="primary"/></g><g style="display:block"><path fill="#F5E3E1" d="M46.831 32.913c-2.555-2.068-1.466-6.145 1.886-6.452.09 0 .353-.013.499.001.996.093 3.089.63 3.39 3.265.244 2.138-1.321 3.645-3.064 3.904-.935.139-1.961-.111-2.711-.718" class="secondary"/><path fill="none" stroke="#16161C" stroke-linecap="round" stroke-linejoin="round" stroke-width="3" d="M46.831 32.913c-2.555-2.068-1.466-6.145 1.886-6.452.09 0 .353-.013.499.001.996.093 3.089.63 3.39 3.265.244 2.138-1.321 3.645-3.064 3.904-.935.139-1.961-.111-2.711-.718" class="primary"/></g><g style="display:block"><path fill="#F5E3E1" d="M141.324 156.359c-2.555-2.068-1.466-6.145 1.886-6.452.09 0 .353-.013.499.001.996.093 3.089.63 3.39 3.265.244 2.138-1.321 3.645-3.064 3.904-.935.139-1.961-.111-2.711-.718" class="secondary"/><path fill="none" stroke="#16161C" stroke-linecap="round" stroke-linejoin="round" stroke-width="3" d="M141.324 156.359c-2.555-2.068-1.466-6.145 1.886-6.452.09 0 .353-.013.499.001.996.093 3.089.63 3.39 3.265.244 2.138-1.321 3.645-3.064 3.904-.935.139-1.961-.111-2.711-.718" class="primary"/></g><g style="display:block"><path fill="#F5E3E1" d="M141.033 33.199c-2.555-2.068-1.466-6.145 1.886-6.452.09 0 .353-.013.499.001.996.093 3.089.63 3.39 3.265.244 2.138-1.321 3.645-3.064 3.904-.935.139-1.961-.111-2.711-.718" class="secondary"/><path fill="none" stroke="#16161C" stroke-linecap="round" stroke-linejoin="round" stroke-width="3" d="M141.033 33.199c-2.555-2.068-1.466-6.145 1.886-6.452.09 0 .353-.013.499.001.996.093 3.089.63 3.39 3.265.244 2.138-1.321 3.645-3.064 3.904-.935.139-1.961-.111-2.711-.718" class="primary"/></g><g style="display:block"><path fill="#A0CCF9" d="M73.436 142.55c-26.327-21.305-15.102-63.321 19.433-66.482.925-.002 3.644-.123 5.145.018 10.267.962 31.826 6.489 34.929 33.635 2.518 22.031-13.615 37.557-31.57 40.225-9.634 1.432-20.211-1.143-27.937-7.396" class="tertiary"/><path fill="none" stroke="#16161C" stroke-linecap="round" stroke-linejoin="round" stroke-width="4.5015" d="M73.436 142.55c-26.327-21.305-15.102-63.321 19.433-66.482.925-.002 3.644-.123 5.145.018 10.267.962 31.826 6.489 34.929 33.635 2.518 22.031-13.615 37.557-31.57 40.225-9.634 1.432-20.211-1.143-27.937-7.396" class="primary"/></g><g style="display:block"><path fill="#F5E3E1" d="M77.391 137.508c-21.738-17.64-12.469-52.427 16.046-55.044.764-.001 3.008-.102 4.247.015 8.477.796 26.279 5.373 28.841 27.848 2.079 18.241-11.241 31.096-26.066 33.305-7.955 1.186-16.689-.947-23.068-6.124" class="secondary"/><path fill="none" stroke="#16161C" stroke-linecap="round" stroke-linejoin="round" stroke-width="3" d="M77.391 137.508c-21.738-17.64-12.469-52.427 16.046-55.044.764-.001 3.008-.102 4.247.015 8.477.796 26.279 5.373 28.841 27.848 2.079 18.241-11.241 31.096-26.066 33.305-7.955 1.186-16.689-.947-23.068-6.124" class="primary"/></g><g style="display:block"><path fill="#A0CCF9" d="M88.732 122.686c-8.524-6.898-4.89-20.503 6.292-21.526.299 0 1.18-.04 1.666.006 3.324.311 10.304 2.102 11.309 10.891.815 7.133-4.408 12.16-10.221 13.024-3.119.464-6.544-.37-9.046-2.395" class="tertiary"/><path fill="none" stroke="#16161C" stroke-linecap="round" stroke-linejoin="round" stroke-width="3" d="M88.732 122.686c-8.524-6.898-4.89-20.503 6.292-21.526.299 0 1.18-.04 1.666.006 3.324.311 10.304 2.102 11.309 10.891.815 7.133-4.408 12.16-10.221 13.024-3.119.464-6.544-.37-9.046-2.395" class="primary"/></g><g style="display:block"><path fill="#A0CCF9" d="M86.923 59.501c-10.582-8.564-6.071-25.451 7.811-26.722.372-.001 1.465-.05 2.068.007 4.127.387 12.793 2.608 14.04 13.52 1.012 8.856-5.473 15.097-12.69 16.169-3.872.576-8.123-.461-11.229-2.974" class="tertiary"/><path fill="none" stroke="#16161C" stroke-linecap="round" stroke-linejoin="round" stroke-width="4.5" d="M86.923 59.501c-10.582-8.564-6.071-25.451 7.811-26.722.372-.001 1.465-.05 2.068.007 4.127.387 12.793 2.608 14.04 13.52 1.012 8.856-5.473 15.097-12.69 16.169-3.872.576-8.123-.461-11.229-2.974" class="primary"/></g><g style="display:block"><path fill="#F5E3E1" d="M93.071 51.517c-3.426-2.773-1.966-8.241 2.529-8.652.12 0 .475-.016.67.002 1.336.125 4.142.844 4.546 4.377.328 2.867-1.772 4.889-4.109 5.236-1.254.186-2.63-.149-3.636-.963" class="secondary"/><path fill="none" stroke="#16161C" stroke-linecap="round" stroke-linejoin="round" stroke-width="3" d="M93.071 51.517c-3.426-2.773-1.966-8.241 2.529-8.652.12 0 .475-.016.67.002 1.336.125 4.142.844 4.546 4.377.328 2.867-1.772 4.889-4.109 5.236-1.254.186-2.63-.149-3.636-.963" class="primary"/></g><path fill="none" class="primary" style="display:none"/><path fill="none" class="primary" style="display:none"/><path fill="none" class="primary" style="display:none"/><path fill="none" class="primary" style="display:none"/><path fill="none" stroke="#16161C" stroke-linecap="round" stroke-linejoin="round" stroke-width="3" d="M7.262 19.627C9.952 1.849 1.854-14.491-7.785-19.627" class="primary" style="display:block" transform="translate(132.449 98.22)"/><path fill="none" stroke="#16161C" stroke-linecap="round" stroke-linejoin="round" stroke-width="3" d="M-6.318 10.583C-8.671.991-2.933-8.952 6.844-10.583" class="primary" style="display:block" transform="translate(81.841 38.212)"/></g><g clip-path="url(#c)" style="display:none"><g style="display:none"><path fill="none" class="quaternary"/><path class="quaternary"/></g><path fill="none" class="primary" style="display:none"/><path fill="none" class="primary" style="display:none"/><path fill="none" class="primary" style="display:none"/><path fill="none" class="primary" style="display:none"/><g style="display:none"><path class="secondary"/><path fill="none" class="primary"/></g><g style="display:none"><path class="secondary"/><path fill="none" class="primary"/></g><g style="display:none"><path class="secondary"/><path fill="none" class="primary"/></g><g style="display:none"><path class="secondary"/><path fill="none" class="primary"/></g><g style="display:none"><path class="tertiary"/><path fill="none" class="primary"/></g><g style="display:none"><path class="secondary"/><path fill="none" class="primary"/></g><g style="display:none"><path class="tertiary"/><path fill="none" class="primary"/></g><g style="display:none"><path class="tertiary"/><path fill="none" class="primary"/></g><g style="display:none"><path class="secondary"/><path fill="none" class="primary"/></g><path fill="none" class="primary" style="display:none"/><path fill="none" class="primary" style="display:none"/><path fill="none" class="primary" style="display:none"/></g></g></svg>